<svg xmlns="http://www.w3.org/2000/svg" xmlns:xlink="http://www.w3.org/1999/xlink" width="1920" height="188" viewBox="0 0 1920 188"><defs><style>.a{fill:#1e2246;}.b{opacity:0.354;clip-path:url(#a);}.c{fill:#ededed;opacity:0.12;}</style><clipPath id="a"><rect class="a" width="1920" height="188" transform="translate(0 -0.301)"/></clipPath></defs><g class="b" transform="translate(0 0.301)"><path class="c" d="M216.5,0,106.02-220.41-4.464,0H39.618L58.032-38.781h95.7L172.143,0ZM137.826-71.982H74.214l31.527-66.96ZM274.257,0V-211.2H234.639V0ZM381.672,0C440.541,0,469-23.994,469-63.612c0-29.295-28.458-46.872-47.709-51.336,12.834-5.3,30.411-22.32,30.411-40.455,0-44.361-36.549-55.8-80.352-55.8H319.455V0Zm-22.6-125.829v-49.383h20.088c17.3,0,30.69,4.743,30.69,23.715,0,16.74-12.555,25.668-34.038,25.668Zm0,89.838V-89.838h28.458c25.11,0,39.06,12,39.06,25.11,0,18.414-11.439,28.737-37.386,28.737ZM678.528,0,588.69-82.3c27.621-6.975,50.778-23.994,50.778-63.891,0-56.916-54.405-65.007-95.139-65.007H500.8V0h39.618V-78.678h4.185L623.844,0Zm-138.1-114.669v-60.543h14.508c30.132,0,42.687,11.718,42.687,29.295,0,20.925-13.95,31.248-43.8,31.248ZM727.074,0V-211.2H687.456V0Zm172.98-.279V-36.27H811.89V-211.2H772.272V-.279Zm154.566,0V-36.27H966.456V-211.2H926.838V-.279Zm66.4.279V-211.2H1081.4V0Zm239.1,0L1249.641-220.41,1139.157,0h44.082l18.414-38.781h95.7L1315.764,0Zm-78.678-71.982h-63.612l31.527-66.96Zm291,79.794L1573-211.2h-39.618l.279,134.478L1378.539-217.062,1377.981,0H1417.6l-.558-128.9Zm209.808-57.195c-6.975,6.417-25.668,18.414-58.032,18.414-41.292,0-75.33-32.364-75.33-73.377,0-43.8,28.458-75.888,69.471-75.888,25.11,0,44.361,7.812,59.427,22.041l20.925-27.342c-5.022-6.975-32.085-30.411-78.4-30.411-67.518,0-113.832,50.5-113.832,110.484,0,59.706,49.941,110.2,117.459,110.2,32.364,0,57.195-9.486,76.446-28.179Zm183.861,49.1V-36.27h-94.581V-93.744h69.192v-35.991h-69.192v-45.477h85.932v-35.712h-125.55V-.279Z" transform="translate(-32 258.699)"/></g></svg>