<svg xmlns="http://www.w3.org/2000/svg" width="107.498" height="117.066" viewBox="0 0 107.498 117.066"><defs><style>.a{fill:#2ac8f5;opacity:0.446;}.b{opacity:0.44;}</style></defs><g transform="translate(-1204.438 -3347)"><circle class="a" cx="39" cy="39" r="39" transform="translate(1233.936 3347)"/><g class="b" transform="translate(1204.434 3374.503)"><g transform="translate(0.004)"><g transform="translate(0)"><path d="M89.566,27.446a4.339,4.339,0,0,0-4.334-4.334,4.288,4.288,0,0,0-1.413.256l-6.473-8.091A4.289,4.289,0,0,0,78.01,13a4.327,4.327,0,0,0-7.431-3.022L59.192,4.724c.012-.13.039-.256.039-.39a4.323,4.323,0,0,0-8.4-1.445H34.407a4.323,4.323,0,0,0-8.4,1.445,4.237,4.237,0,0,0,.053.526L18.894,8.442a4.319,4.319,0,0,0-6.671,5.391L5.75,21.924a4.288,4.288,0,0,0-1.413-.256,4.323,4.323,0,0,0-1.445,8.4v9.2a4.322,4.322,0,1,0,5.186,6.214l7.886,1.433a4.329,4.329,0,0,0,4.263,3.642c.058,0,.113-.014.17-.017l2.756,6.892a4.32,4.32,0,1,0,6.372,5.746l12.4,3.542a4.317,4.317,0,0,0,2.862,3.795V81.162a4.334,4.334,0,1,0,2.889,0V70.517a4.3,4.3,0,0,0,1.212-7.467l1.725-5.176L63.573,62.2a4.324,4.324,0,0,0,2.88,3.987V81.161a4.334,4.334,0,1,0,2.889,0V66.183A4.267,4.267,0,0,0,71.95,60.62l11.084-9.236a4.284,4.284,0,0,0,2.2.62,4.323,4.323,0,0,0,1.445-8.4V31.513A4.324,4.324,0,0,0,89.566,27.446Zm-15.89-15.89A1.445,1.445,0,1,1,72.231,13,1.446,1.446,0,0,1,73.676,11.556Zm-2.054,5.236a4.107,4.107,0,0,0,3.465.286l6.473,8.092a4.3,4.3,0,0,0-.662,2.275,4.242,4.242,0,0,0,.069.68L70.735,33.709,63.282,27.5a4.21,4.21,0,0,0-.051-3.153ZM53.452,40.447a4.263,4.263,0,0,0-1.856.435l-6.121-6.121,10.805-5.6a4.253,4.253,0,0,0,5.148.558L68.006,35.2,56.33,41.565A4.3,4.3,0,0,0,53.452,40.447ZM54.9,44.781a1.445,1.445,0,1,1-1.445-1.445A1.446,1.446,0,0,1,54.9,44.781ZM33.057,28.872l2.425,7.815-12.3,6.381a4.33,4.33,0,0,0-1.849-1.017l-2-15.353,9.9-.5A4.331,4.331,0,0,0,33.057,28.872Zm-1.273-4.315A1.445,1.445,0,1,1,33.229,26,1.446,1.446,0,0,1,31.784,24.557ZM36.35,39.493,40.014,51.3,24.553,46.145a4.21,4.21,0,0,0-.052-.508Zm-.01-9.78,4.3,4.3-2.555,1.325Zm.789-3.3a4.238,4.238,0,0,0,.069-3.585l6.859-6.4,11.057,8.292A4.267,4.267,0,0,0,54.9,26a4.4,4.4,0,0,0,.059.589L43.332,32.618ZM57.786,26a1.445,1.445,0,1,1,1.445,1.445A1.446,1.446,0,0,1,57.786,26ZM70.394,37.186l10.35,8.625L58.318,43.773ZM54.9,2.889a1.445,1.445,0,1,1-1.445,1.445A1.446,1.446,0,0,1,54.9,2.889ZM52.912,8.163A4.255,4.255,0,0,0,58,7.354l11.386,5.255c-.012.131-.039.257-.039.391a4.312,4.312,0,0,0,.332,1.658l-8.39,7.551a4.243,4.243,0,0,0-4.454.188L46.2,14.425ZM50.829,5.778c.035.094.059.192.1.283l-7.074,6.6-9.18-6.885ZM30.34,2.889a1.445,1.445,0,1,1-1.445,1.445A1.446,1.446,0,0,1,30.34,2.889ZM20.228,11.556a4.187,4.187,0,0,0-.053-.524L27.339,7.45a4.307,4.307,0,0,0,5.4.488l8.969,6.727-6.495,6.061a4.28,4.28,0,0,0-1.985-.5A4.325,4.325,0,0,0,29.1,23.316l-10.147.507-1.1-8.423A4.322,4.322,0,0,0,20.228,11.556Zm-4.334-1.445a1.445,1.445,0,1,1-1.445,1.445A1.446,1.446,0,0,1,15.894,10.112Zm-1.413,5.523a4.383,4.383,0,0,0,.507.157l1.066,8.178-7.712.386a4.3,4.3,0,0,0-.334-.63ZM4.338,24.557A1.445,1.445,0,1,1,2.893,26,1.446,1.446,0,0,1,4.338,24.557Zm0,20.224a1.445,1.445,0,1,1,1.445-1.445A1.446,1.446,0,0,1,4.338,44.781Zm12.149-.7L8.6,42.645a4.325,4.325,0,0,0-2.82-3.376v-9.2a4.327,4.327,0,0,0,2.687-2.827l7.962-.4,2.014,15.442A4.338,4.338,0,0,0,16.486,44.078Zm3.741,3.593a1.445,1.445,0,1,1,1.445-1.445A1.446,1.446,0,0,1,20.228,47.67Zm5.778,14.445a1.445,1.445,0,1,1,1.445-1.445A1.446,1.446,0,0,1,26.006,62.116Zm16.7,1.824L30.314,60.4a4.329,4.329,0,0,0-4.308-4.061c-.058,0-.113.014-.17.017l-2.756-6.892a4.453,4.453,0,0,0,.549-.582L41.07,54.695l2.576,8.3A4.4,4.4,0,0,0,42.711,63.94ZM46.23,86.673a1.445,1.445,0,1,1,1.445-1.445A1.446,1.446,0,0,1,46.23,86.673Zm0-18.779a1.445,1.445,0,1,1,1.445-1.445A1.446,1.446,0,0,1,46.23,67.894Zm.049-6.16L44.443,55.82l3.426,1.143Zm2.5-7.513-5.394-1.8L38.958,38.142l3.828-1.985,6.768,6.768a4.263,4.263,0,0,0-.435,1.856,4.31,4.31,0,0,0,1.679,3.4ZM67.9,86.673a1.445,1.445,0,1,1,1.445-1.445A1.446,1.446,0,0,1,67.9,86.673Zm0-23.113a1.445,1.445,0,1,1,1.445-1.445A1.446,1.446,0,0,1,67.9,63.56Zm2.2-5.16a4.258,4.258,0,0,0-5.6,1.06L51.524,55.136l2.009-6.03a4.323,4.323,0,0,0,3.844-2.518l23.67,2.151a4.257,4.257,0,0,0,.133.425Zm3.026-22.7,9.232-5.036a4.289,4.289,0,0,0,1.434.852V43.6a4.346,4.346,0,0,0-.755.354Zm12.11,13.418a1.445,1.445,0,1,1,1.445-1.445A1.446,1.446,0,0,1,85.232,49.115Zm0-20.224a1.445,1.445,0,1,1,1.445-1.445A1.446,1.446,0,0,1,85.232,28.891Z" transform="translate(-0.004)"/><rect width="2.889" height="2.889" transform="translate(2.889)"/><rect width="2.889" height="2.889" transform="translate(2.889 5.778)"/><rect width="2.889" height="2.889" transform="translate(5.778 2.889)"/><rect width="2.889" height="2.889" transform="translate(0 2.889)"/><rect width="2.889" height="2.889" transform="translate(75.117 66.449)"/><rect width="2.889" height="2.889" transform="translate(75.117 72.227)"/><rect width="2.889" height="2.889" transform="translate(78.006 69.338)"/><rect width="2.889" height="2.889" transform="translate(72.227 69.338)"/><rect width="2.889" height="2.889" transform="translate(83.784 5.778)"/><rect width="2.889" height="2.889" transform="translate(83.784 11.556)"/><rect width="2.889" height="2.889" transform="translate(86.673 8.667)"/><rect width="2.889" height="2.889" transform="translate(80.895 8.667)"/><rect width="2.889" height="2.889" transform="translate(17.335 69.338)"/><rect width="2.889" height="2.889" transform="translate(17.335 75.117)"/><rect width="2.889" height="2.889" transform="translate(20.224 72.227)"/><rect width="2.889" height="2.889" transform="translate(14.445 72.227)"/><rect width="2.889" height="2.889" transform="translate(8.667 53.448)"/><rect width="2.889" height="2.889" transform="translate(8.667 59.227)"/><rect width="2.889" height="2.889" transform="translate(11.556 56.337)"/><rect width="2.889" height="2.889" transform="translate(5.778 56.337)"/></g></g></g></g></svg>