<svg xmlns="http://www.w3.org/2000/svg" width="108" height="108" viewBox="0 0 108 108"><defs><style>.a{fill:none;}.b{fill:#ddeafb;}.c{fill:#cbe2ff;}.d{fill:#f4fbff;}.e{fill:#e4f6ff;}.f{fill:#d1e7fe;}.g{fill:#8ec8ff;}.h{fill:#99c8f7;}.i{fill:#2e58fa;}</style></defs><g transform="translate(-1078 -2135)"><rect class="a" width="108" height="108" transform="translate(1078 2135)"/><g transform="translate(1094.2 2152.279)"><g transform="translate(2.211 2.398)"><path class="b" d="M59.421,74.856,24.588,84.831a1.378,1.378,0,0,1-1.58-1.142L15.212,30.9a1.378,1.378,0,0,1,1.142-1.58l34.832-5.608a1.378,1.378,0,0,1,1.58,1.142l7.8,48.422A1.378,1.378,0,0,1,59.421,74.856Z" transform="translate(-15.194 -23.695)"/><path class="b" d="M186.136,74.856l34.832,9.975a1.378,1.378,0,0,0,1.58-1.142l7.8-52.789a1.378,1.378,0,0,0-1.142-1.58L194.37,23.713a1.378,1.378,0,0,0-1.58,1.142l-7.8,48.422A1.378,1.378,0,0,0,186.136,74.856Z" transform="translate(-160.265 -23.695)"/><path class="b" d="M59.421,74.856,24.588,84.831a1.378,1.378,0,0,1-1.58-1.142L15.212,30.9a1.378,1.378,0,0,1,1.142-1.58l34.832-5.608a1.378,1.378,0,0,1,1.58,1.142l7.8,48.422A1.378,1.378,0,0,1,59.421,74.856Z" transform="translate(-15.194 -23.695)"/></g><path class="c" d="M130,24.854a1.378,1.378,0,0,0-1.58-1.142L105.583,27.39V76.519c0,.876.71,4.5,1.586,4.5h13.463l16.021-6.16a1.378,1.378,0,0,0,1.142-1.58Z" transform="translate(-90.216 -21.297)"/><path class="c" d="M194.37,23.713a1.378,1.378,0,0,0-1.58,1.142l-7.8,48.422a1.378,1.378,0,0,0,1.142,1.58l16.021,6.16h13.463c.876,0,1.586-3.621,1.586-4.5V27.39Z" transform="translate(-158.054 -21.298)"/><path class="d" d="M161.988,66.524H126.707a1.378,1.378,0,0,1-1.378-1.378V16.1a1.378,1.378,0,0,1,1.378-1.378h35.281a1.378,1.378,0,0,1,1.378,1.378V65.146A1.378,1.378,0,0,1,161.988,66.524Z" transform="translate(-107.088 -13.63)"/><path class="e" d="M357.105,14.722h-3.423A1.378,1.378,0,0,1,355.06,16.1V65.146a1.378,1.378,0,0,1-1.378,1.378h3.423a1.378,1.378,0,0,0,1.378-1.378V16.1a1.378,1.378,0,0,0-1.378-1.378Z" transform="translate(-302.205 -13.63)"/><path class="f" d="M53.72,297.269l-1.083,2.9a2.229,2.229,0,0,1-2.088,1.449H36.787a2.229,2.229,0,0,1-2.088-1.449l-1.083-2.9a2.228,2.228,0,0,0-2.088-1.449H7.5v20.162a9.16,9.16,0,0,0,9.16,9.16H70.677a9.16,9.16,0,0,0,9.16-9.16V295.82H55.808a2.229,2.229,0,0,0-2.088,1.449Z" transform="translate(-6.408 -253.815)"/><g transform="translate(59.88 42.005)"><path class="g" d="M420.571,295.82v20.162a9.16,9.16,0,0,1-9.16,9.16H415.8a9.16,9.16,0,0,0,9.16-9.16V295.82Z" transform="translate(-411.411 -295.82)"/></g><g transform="translate(0 0)"><path class="h" d="M164.942,62.936H160.9a1.092,1.092,0,0,0,0,2.183h4.037a1.092,1.092,0,0,0,0-2.183Z" transform="translate(-136.553 -54.827)"/><path class="h" d="M230.541,65.119h15.681a1.092,1.092,0,1,0,0-2.183H230.541a1.092,1.092,0,0,0,0,2.183Z" transform="translate(-196.053 -54.827)"/><path class="h" d="M164.942,105.989H160.9a1.092,1.092,0,0,0,0,2.183h4.037a1.092,1.092,0,0,0,0-2.183Z" transform="translate(-136.553 -91.614)"/><path class="h" d="M230.541,108.172h15.681a1.092,1.092,0,1,0,0-2.183H230.541a1.092,1.092,0,0,0,0,2.183Z" transform="translate(-196.053 -91.614)"/><path class="h" d="M164.942,149.043H160.9a1.092,1.092,0,1,0,0,2.183h4.037a1.092,1.092,0,0,0,0-2.183Z" transform="translate(-136.553 -128.401)"/><path class="h" d="M230.541,151.226h15.681a1.092,1.092,0,1,0,0-2.183H230.541a1.092,1.092,0,0,0,0,2.183Z" transform="translate(-196.053 -128.401)"/><path class="i" d="M186.163,372.272v-5.335a1.89,1.89,0,0,0-1.887-1.887h-24.9a1.889,1.889,0,0,0-1.887,1.887v5.335a1.89,1.89,0,0,0,1.887,1.887h24.9A1.89,1.89,0,0,0,186.163,372.272Zm-2.183-.3H159.67v-4.744h24.31Z" transform="translate(-134.565 -312.968)"/><path class="h" d="M164.942,192.1H160.9a1.092,1.092,0,1,0,0,2.183h4.037a1.092,1.092,0,1,0,0-2.183Z" transform="translate(-136.553 -165.188)"/><path class="h" d="M230.541,194.279h15.681a1.092,1.092,0,1,0,0-2.183H230.541a1.092,1.092,0,0,0,0,2.183Z" transform="translate(-196.053 -165.188)"/><path class="h" d="M164.942,235.149H160.9a1.092,1.092,0,0,0,0,2.183h4.037a1.092,1.092,0,1,0,0-2.183Z" transform="translate(-136.553 -201.975)"/><path class="h" d="M230.541,237.332h15.681a1.092,1.092,0,1,0,0-2.183H230.541a1.092,1.092,0,0,0,0,2.183Z" transform="translate(-196.053 -201.975)"/><path class="i" d="M192.721,451.807a1.092,1.092,0,1,0,0,2.183h16.555a1.092,1.092,0,1,0,0-2.183Z" transform="translate(-163.738 -387.099)"/><path class="i" d="M73.428,48.135H68.77l2.8-18.976a1.092,1.092,0,0,0-2.16-.319l-2.85,19.295H57.37v-34l13.606,2.191a.281.281,0,0,1,.187.115.292.292,0,0,1,.048.227l-1.148,7.773a1.092,1.092,0,1,0,2.16.319L73.368,17a2.47,2.47,0,0,0-2.046-2.831L57.37,11.921V9.692a2.473,2.473,0,0,0-2.47-2.47H35.847a1.092,1.092,0,0,0,0,2.183H54.9a.287.287,0,0,1,.287.287V48.135H49.4a3.335,3.335,0,0,0-3.11,2.158l-1.083,2.9a1.142,1.142,0,0,1-1.065.739H30.379a1.142,1.142,0,0,1-1.065-.739l-1.083-2.9a3.335,3.335,0,0,0-3.11-2.158H19.333V9.692a.287.287,0,0,1,.287-.287H31.482a1.092,1.092,0,0,0,0-2.183H19.62a2.473,2.473,0,0,0-2.47,2.47v2.23L3.2,14.168a2.47,2.47,0,0,0-2.048,2.817l4.6,31.15H1.092A1.092,1.092,0,0,0,0,49.227V69.388A10.263,10.263,0,0,0,10.251,79.64h4.729a1.092,1.092,0,1,0,0-2.183H10.251a8.077,8.077,0,0,1-8.068-8.068V50.318H25.121a1.142,1.142,0,0,1,1.065.739l1.083,2.9a3.335,3.335,0,0,0,3.11,2.158H44.141a3.335,3.335,0,0,0,3.11-2.158l1.083-2.9a1.142,1.142,0,0,1,1.065-.739H72.337v19.07a8.077,8.077,0,0,1-8.068,8.068H19.345a1.092,1.092,0,0,0,0,2.183H64.269A10.263,10.263,0,0,0,74.52,69.388V49.227A1.092,1.092,0,0,0,73.428,48.135ZM3.307,16.652a.287.287,0,0,1,.237-.328L17.15,14.133v34H7.957Z" transform="translate(0 -7.222)"/></g></g></g></svg>