<svg xmlns="http://www.w3.org/2000/svg" width="56.165" height="55.886" viewBox="0 0 56.165 55.886"><defs><style>.a{fill:#3562b9;}</style></defs><path class="a" d="M33.322.419l2.1.466,1.7.605,1.374.7,1.048.745.792.792.582.792.373.768.233.7.093.605.047.466-.023.3V19.793l-.116,1.467-.3,1.281-.489,1.071-.605.885-.7.722-.768.582-.815.442-.815.326-.768.233-.7.163-.605.093-.489.047h-13.9l-1.607.116-1.374.326-1.164.512-.955.629-.768.745-.629.815-.466.838-.349.862-.233.815-.163.745-.093.629-.047.489v7.125H7.521l-.489-.07-.652-.163-.745-.279L4.82,40.82l-.838-.605-.838-.838-.815-1.071-.745-1.374-.652-1.7L.442,33.182.116,30.737,0,27.873l.14-2.841L.512,22.61l.559-2.026.745-1.653L2.655,17.6l.931-1.025.978-.768.978-.559.931-.373.838-.233.745-.116.559-.023h.373l.14.023h19V12.6H14.53l-.023-6.4-.047-.862.116-.792.256-.722.4-.652.582-.605.722-.536.885-.466,1.025-.419L19.63.792,20.98.512l1.49-.233L24.124.14,25.917.047,27.873,0,30.83.116l2.492.3ZM18.652,5.03l-.536.768-.186.955.186.955.536.792.768.512.955.21.955-.21L22.1,8.5l.536-.792.186-.955L22.634,5.8,22.1,5.03l-.768-.512-.955-.21-.955.21-.768.512Zm30.481,9.2.652.14.745.279.815.419.838.629.838.815.815,1.094.745,1.374.652,1.7.489,2.049.326,2.422.116,2.864-.14,2.864L55.653,33.3l-.559,2-.745,1.653-.838,1.327-.931,1.048L51.6,40.1l-.978.559-.931.373-.838.21-.745.116-.559.047-.373-.023H28.036v1.909h13.6l.023,6.427.047.838-.116.792-.256.722-.4.675-.582.582-.722.559-.885.466-1.025.4-1.188.349-1.351.3-1.49.21-1.653.163-1.793.093-1.956.023-2.957-.093-2.492-.326L20.748,55l-1.7-.582-1.374-.7-1.048-.768-.792-.792-.582-.792L14.88,50.6l-.233-.7-.093-.582-.047-.466.023-.3V36.116l.116-1.49.3-1.257.489-1.071.605-.885.7-.745.768-.559.815-.466.815-.326.768-.233.7-.14.605-.093L21.7,28.8l.3-.023H35.6l1.607-.116,1.374-.326,1.164-.489L40.7,27.2l.768-.745.629-.815.466-.838.349-.838.233-.815.163-.745.093-.652.047-.489V14.134h4.867l.326.023.489.07ZM34.067,47.41l-.536.768-.186.955.186.955.536.768.768.536.955.186.955-.186.768-.536.536-.768.186-.955-.186-.955-.536-.768-.768-.536-.955-.186-.955.186-.768.536Z"/></svg>