<svg xmlns="http://www.w3.org/2000/svg" width="108" height="108" viewBox="0 0 108 108"><defs><style>.a{fill:#d1e7ff;}.b{fill:#e8f3ff;}.c{fill:#b9dcff;}.d{fill:#2e58ff;}.e{fill:none;}</style></defs><g transform="translate(-0.184 0.061)"><g transform="translate(13.384 23.833)"><path class="a" d="M104.963,11.288v54.25H34V11.288A3.057,3.057,0,0,1,36.756,8h65.451A3.057,3.057,0,0,1,104.963,11.288Z" transform="translate(-28.144 -6.356)"/><path class="b" d="M103.24,11.7c0,2.043-1.388,3.7-3.1,3.7H82.227C59.016,15.4,40.2,37.846,40.2,65.538H34V11.288A3.057,3.057,0,0,1,36.756,8H100.14C101.852,8,103.24,9.656,103.24,11.7Z" transform="translate(-28.144 -6.356)"/><path class="c" d="M47.779,243.788v6.473H34v-6.473a3.057,3.057,0,0,1,2.756-3.288h8.268A3.057,3.057,0,0,1,47.779,243.788Z" transform="translate(-28.144 -191.079)"/><path class="a" d="M45.06,243.991H39.684a3.057,3.057,0,0,0-2.756,3.288v2.98H34v-6.473a3.057,3.057,0,0,1,2.756-3.288c8.823,0,8.305,0,8.441.007C47.057,240.643,46.924,243.991,45.06,243.991Z" transform="translate(-28.144 -191.076)"/><path class="d" d="M81.3,60.826H1.378a1.67,1.67,0,0,1,0-3.288h16.88V52.709a1.53,1.53,0,0,0-1.378-1.644H5.856a1.529,1.529,0,0,1-1.378-1.644V1.644A1.529,1.529,0,0,1,5.856,0H76.819A1.529,1.529,0,0,1,78.2,1.644V57.538h3.1C82.058,57.538,82.058,60.826,81.3,60.826ZM21.013,52.709v4.829H75.441V3.288H7.234V47.777H16.88C19.159,47.777,21.013,49.989,21.013,52.709ZM24.286,22.4h34.1a1.529,1.529,0,0,0,1.378-1.644,1.529,1.529,0,0,0-1.378-1.644h-34.1a1.529,1.529,0,0,0-1.378,1.644A1.529,1.529,0,0,0,24.286,22.4Zm0,18.083H42.543a1.67,1.67,0,0,0,0-3.288H24.286a1.67,1.67,0,0,0,0,3.288Zm27.9-3.288H49.95a1.67,1.67,0,0,0,0,3.288h2.239a1.67,1.67,0,0,0,0-3.288Z" transform="translate(0 0)"/></g><rect class="e" width="108" height="108" transform="translate(0.184 -0.061)"/></g></svg>