<svg xmlns="http://www.w3.org/2000/svg" width="24" height="24" viewBox="0 0 24 24"><defs><style>.a{fill:none;}.b{fill:#fff;}</style></defs><rect class="a" width="24" height="24"/><g transform="translate(5.401 1.636)"><path class="b" d="M10.094,14.015A6.7,6.7,0,0,0,4,20.773v.177a1.227,1.227,0,0,0,1.227,1.227h0a1.227,1.227,0,0,0,1.227-1.227v-.227a4.214,4.214,0,0,1,3.68-4.252,4.094,4.094,0,0,1,4.5,4.07v.409a1.227,1.227,0,0,0,1.227,1.227h0a1.227,1.227,0,0,0,1.227-1.227v-.409a6.549,6.549,0,0,0-6.99-6.527Z" transform="translate(-3.999 -1.551)"/><path class="b" d="M10.907,9.813A4.907,4.907,0,1,0,6,4.907a4.907,4.907,0,0,0,4.907,4.907Zm0-7.36A2.453,2.453,0,1,1,8.453,4.907a2.453,2.453,0,0,1,2.453-2.453Z" transform="translate(-4.364 0)"/></g></svg>