<?xml version="1.0" encoding="utf-8"?>
<!-- Generator: Adobe Illustrator 25.2.0, SVG Export Plug-In . SVG Version: 6.00 Build 0)  -->
<svg version="1.1" id="Layer_1" xmlns="http://www.w3.org/2000/svg" xmlns:xlink="http://www.w3.org/1999/xlink" x="0px" y="0px"
	 viewBox="0 0 30.5 34" style="enable-background:new 0 0 30.5 34;" xml:space="preserve">
<style type="text/css">
	.st0{fill:#FFFFFF;}
	.st1{fill:none;}
</style>
<g transform="translate(6.706 8.499)">
	<g transform="matrix(1, 0, 0, 1, -6.71, -8.5)">
		<path class="st0" d="M19,28.6H6.4V5.9c0-0.7,0.6-1.3,1.3-1.3H19c3.5,0,6.3,2.8,6.3,6.3V12c0,1.7-0.7,3.4-2,4.6
			c1.3,1.2,2,2.9,2,4.6v1.1C25.4,25.8,22.5,28.6,19,28.6z M13.1,9.8c-0.2,0-0.4,0.1-0.4,0.3l-2.8,8.4c0,0.1,0,0.3,0.1,0.4
			c0.1,0.1,0.2,0.2,0.4,0.2h4l-2.5,5.9c-0.1,0.2,0,0.5,0.2,0.6c0.2,0.1,0.4,0.1,0.6-0.1L20,17c0.1-0.1,0.2-0.3,0.1-0.5
			c-0.1-0.2-0.2-0.3-0.4-0.3h-3.9l3.3-5.8c0.1-0.1,0.1-0.3,0-0.5c-0.1-0.1-0.2-0.2-0.4-0.2H13.1z"/>
	</g>
	<rect x="-6.6" y="-6.4" class="st1" width="30.3" height="30.3"/>
</g>
</svg>
