<svg xmlns="http://www.w3.org/2000/svg" width="208.425" height="33.35" viewBox="0 0 208.425 33.35"><defs><style>.a,.c{fill:#43abfb;}.b{fill:#e6e6e6;}.c{stroke:rgba(0,0,0,0);stroke-miterlimit:10;}</style></defs><g transform="translate(-146 -49)"><g transform="translate(146 49)"><path class="a" d="M3992.061,5272.5a9.112,9.112,0,0,1-2.806,6.567,9.692,9.692,0,0,1-6.77,2.72c-.187,0-.372-.006-.556-.017-.1.011-.206.016-.308.017h-13.428a2.819,2.819,0,0,1-2.861-2.774V5274.4l24.813-7.472A9.061,9.061,0,0,1,3992.061,5272.5Z" transform="translate(-3965.33 -5248.439)"/><path class="b" d="M4237.257,4516.87a2.829,2.829,0,0,1,.3-.371l-2-2.623-1.3,1.712Z" transform="translate(-4227.646 -4513.738)"/><path class="b" d="M3989.258,4525.521c-.057.062-.115.121-.174.181.059.051.117.107.173.162q.327.314.623.658l-24.544,7.236v-7.841a1.9,1.9,0,0,1,.01-.217,2.267,2.267,0,0,1-.01-.238v-4.354a2.989,2.989,0,0,0,2.419-1.229l6.719,2.734a2.964,2.964,0,0,0,.8,2.747,2.974,2.974,0,1,0,.947-4.837l-2.514-5.352,1.156-.513a2.943,2.943,0,0,0,.411.509,2.972,2.972,0,1,0,.229-4.407l-1.9-2.48h8.013c.1,0,.206.006.309.016.185-.01.37-.016.556-.016a9.3,9.3,0,0,1,6.77,2.959,10.516,10.516,0,0,1,.786,13.347A10.185,10.185,0,0,1,3989.258,4525.521Z" transform="translate(-3965.334 -4508.279)"/><path class="b" d="M4175.294,4509.983l1.293-1.7h-2.43l.709,1.519Z" transform="translate(-4169.02 -4508.282)"/><path class="b" d="M4030.036,4650.2l-1.816,3.887a2.925,2.925,0,0,1,.271.186l2.331-3.063Z" transform="translate(-4026.663 -4646.682)"/><path class="b" d="M4152.25,4618.89l2.163,2.776,1.138-.51-1.91-4.092Z" transform="translate(-4147.652 -4614.371)"/><path class="b" d="M4079.627,4826.361l-3.8-4.883-3.721,1.665a3.122,3.122,0,0,1,.051.552,2.99,2.99,0,0,1-.369,1.444l6.658,2.724A3.016,3.016,0,0,1,4079.627,4826.361Z" transform="translate(-4069.148 -4813.84)"/><path class="b" d="M4059.749,4533.542a3.019,3.019,0,0,1-.521.939l.968,1.243.775-1.659Z" transform="translate(-4056.902 -4532.917)"/><path class="b" d="M4052.793,4703.215l-2.286,3a3,3,0,0,1,.752,1.224l3.579-1.6Z" transform="translate(-4048.397 -4698.455)"/><path class="b" d="M3967.362,4582.6a2.991,2.991,0,0,1-2.054.825,3,3,0,0,0-.013.387v3.913a3,3,0,0,1,1.227.262l1.888-4.043Z" transform="translate(-3965.294 -4580.76)"/><path class="b" d="M4252.295,4800.572l-2.139-4.583-1.061.475Z" transform="translate(-4242.116 -4788.965)"/><path class="b" d="M4085.529,4509.094l.378-.812h-1.617c-.01.089-.023.176-.041.264Z" transform="translate(-4081.305 -4508.282)"/><path class="b" d="M4221.844,4596.673l-3.033-1.3-.154.2,2,4.275,1.139-.51a3.012,3.012,0,0,1,.052-2.671Z" transform="translate(-4212.425 -4593.221)"/><path class="b" d="M4109.534,4560.532l-.861,1.842.843,1.081,1.447-1.9-.237-.509Z" transform="translate(-4105.125 -4559.239)"/><path class="b" d="M4150.566,4520.247l-.48-1.03-.321.687Z" transform="translate(-4145.199 -4518.947)"/></g><g transform="translate(181.738 49)"><path class="b" d="M18.446-40.846a5.132,5.132,0,0,1,3.566,1A3.96,3.96,0,0,1,23.07-36.83v1.168a3.484,3.484,0,0,1-1.558,3.091,3.354,3.354,0,0,1,1.679,3.14v1.412a6.474,6.474,0,0,1-.219,1.753,3.236,3.236,0,0,1-.718,1.327,3.189,3.189,0,0,1-1.327.84,6.2,6.2,0,0,1-2.045.292H4.426a.645.645,0,0,1-.73-.73V-40.116a.645.645,0,0,1,.73-.73ZM7.42-31.11v3.627a.28.28,0,0,0,.316.316h9.979A2.143,2.143,0,0,0,19.1-27.52a1.41,1.41,0,0,0,.414-1.132v-.925a1.43,1.43,0,0,0-.45-1.144A2.624,2.624,0,0,0,17.4-31.11Zm0-2.653H17.4a2.7,2.7,0,0,0,1.655-.365,1.315,1.315,0,0,0,.438-1.071v-.828a1.357,1.357,0,0,0-.426-1.108,2.151,2.151,0,0,0-1.375-.353H7.736a.28.28,0,0,0-.316.316Zm31.106-3.408a.387.387,0,0,1,.438.438v2.045a.387.387,0,0,1-.438.438H32.052a5.2,5.2,0,0,0-1.29.134,1.753,1.753,0,0,0-.815.438,1.677,1.677,0,0,0-.426.828,5.735,5.735,0,0,0-.122,1.278v7.229a.473.473,0,0,1-.535.535H26.478q-.56,0-.56-.535V-32.23a7.622,7.622,0,0,1,.292-2.252,3.332,3.332,0,0,1,.961-1.533,4.153,4.153,0,0,1,1.777-.876,11.5,11.5,0,0,1,2.763-.28Zm5.33,0q.535,0,.535.56v12.268a.473.473,0,0,1-.535.535H41.471a.473.473,0,0,1-.535-.535V-36.611q0-.56.535-.56Zm0-4.941a.473.473,0,0,1,.535.535v2.312q0,.56-.535.56H41.471a.5.5,0,0,1-.56-.56v-2.312q0-.535.56-.535Zm6.572.049a.473.473,0,0,1,.535.535v17.184a.473.473,0,0,1-.535.535H48.043a.473.473,0,0,1-.535-.535V-41.528a.473.473,0,0,1,.535-.535Zm6.572,0a.473.473,0,0,1,.535.535v17.184a.473.473,0,0,1-.535.535H54.614a.473.473,0,0,1-.535-.535V-41.528a.473.473,0,0,1,.535-.535Zm6.572,4.892q.535,0,.535.56v12.268a.473.473,0,0,1-.535.535H61.186a.473.473,0,0,1-.535-.535V-36.611q0-.56.535-.56Zm0-4.941a.473.473,0,0,1,.535.535v2.312q0,.56-.535.56H61.186a.5.5,0,0,1-.56-.56v-2.312q0-.535.56-.535ZM78-37.171a11.527,11.527,0,0,1,2.75.28,4.157,4.157,0,0,1,1.789.876,3.332,3.332,0,0,1,.961,1.533A7.622,7.622,0,0,1,83.8-32.23v6.475a4.483,4.483,0,0,1-.085.961,1.249,1.249,0,0,1-.292.6,1.1,1.1,0,0,1-.548.3,3.711,3.711,0,0,1-.876.085H70.411a6.567,6.567,0,0,1-1.789-.207,2.767,2.767,0,0,1-1.156-.621,2.273,2.273,0,0,1-.621-1.071,5.866,5.866,0,0,1-.183-1.558v-1.168a4.613,4.613,0,0,1,.183-1.351,2.282,2.282,0,0,1,.621-1.01,2.767,2.767,0,0,1,1.156-.621,6.567,6.567,0,0,1,1.789-.207h9.906v-.462a3.571,3.571,0,0,0-.122-1,1.385,1.385,0,0,0-.414-.669,1.853,1.853,0,0,0-.8-.377,5.835,5.835,0,0,0-1.314-.122H67.49a.387.387,0,0,1-.438-.438v-2.045a.387.387,0,0,1,.438-.438Zm1.606,10.686a.7.7,0,0,0,.548-.183,1,1,0,0,0,.158-.645v-2.142H71.409a1.474,1.474,0,0,0-1.059.3,1.2,1.2,0,0,0-.3.888v.511a1.314,1.314,0,0,0,.3.961,1.474,1.474,0,0,0,1.059.3Zm19.5-10.686a11.527,11.527,0,0,1,2.75.28,4.157,4.157,0,0,1,1.789.876,3.332,3.332,0,0,1,.961,1.533,7.622,7.622,0,0,1,.292,2.252v7.886a.473.473,0,0,1-.535.535h-2.385a.473.473,0,0,1-.535-.535V-31.4a7.122,7.122,0,0,0-.1-1.278,1.634,1.634,0,0,0-.377-.828,1.583,1.583,0,0,0-.767-.438,4.905,4.905,0,0,0-1.266-.134H92.463a5.2,5.2,0,0,0-1.29.134,1.753,1.753,0,0,0-.815.438,1.677,1.677,0,0,0-.426.828A5.735,5.735,0,0,0,89.81-31.4v7.059a.473.473,0,0,1-.535.535H86.889q-.56,0-.56-.535V-32.23a7.622,7.622,0,0,1,.292-2.252,3.332,3.332,0,0,1,.961-1.533,4.152,4.152,0,0,1,1.777-.876,11.5,11.5,0,0,1,2.763-.28Zm23.8,0a.387.387,0,0,1,.438.438v2.045a.387.387,0,0,1-.438.438h-9.444a5.323,5.323,0,0,0-1.314.134,1.671,1.671,0,0,0-.8.438,1.734,1.734,0,0,0-.414.828,5.735,5.735,0,0,0-.122,1.278v2.166a5.7,5.7,0,0,0,.122,1.29,1.727,1.727,0,0,0,.414.815,1.671,1.671,0,0,0,.8.438,5.323,5.323,0,0,0,1.314.134h9.444a.387.387,0,0,1,.438.438v2.045a.387.387,0,0,1-.438.438h-9.785a12,12,0,0,1-2.763-.268,4.052,4.052,0,0,1-1.777-.864,3.332,3.332,0,0,1-.961-1.533,7.622,7.622,0,0,1-.292-2.252V-32.23a7.622,7.622,0,0,1,.292-2.252,3.332,3.332,0,0,1,.961-1.533,4.153,4.153,0,0,1,1.777-.876,11.5,11.5,0,0,1,2.763-.28Zm15.139,0a8.548,8.548,0,0,1,2.057.207,2.728,2.728,0,0,1,1.29.682,2.626,2.626,0,0,1,.669,1.241,7.668,7.668,0,0,1,.195,1.862v2.312a1.407,1.407,0,0,1-.341,1.083,1.535,1.535,0,0,1-1.047.3H128.583v.584a2.175,2.175,0,0,0,.548,1.655,3.215,3.215,0,0,0,2.13.511h10.15a.387.387,0,0,1,.438.438v2.045a.387.387,0,0,1-.438.438h-10.49a12,12,0,0,1-2.763-.268,4.052,4.052,0,0,1-1.777-.864,3.332,3.332,0,0,1-.961-1.533,7.621,7.621,0,0,1-.292-2.252V-32.23a7.621,7.621,0,0,1,.292-2.252,3.332,3.332,0,0,1,.961-1.533,4.153,4.153,0,0,1,1.777-.876,11.5,11.5,0,0,1,2.763-.28Zm-9.468,5.525h9.858a.366.366,0,0,0,.414-.414v-1.022a1.482,1.482,0,0,0-.316-1.071,1.651,1.651,0,0,0-1.168-.316H131.26a3.274,3.274,0,0,0-2.13.5,2.169,2.169,0,0,0-.548,1.667Z" transform="translate(30.425 42.112)"/><path class="c" d="M2.958,17.121H.4c-.209,0-.335-.054-.375-.159a.512.512,0,0,1,.061-.4l7.945-14.7A4.145,4.145,0,0,1,9.213.379,2.438,2.438,0,0,1,10.57,0H12a2.972,2.972,0,0,1,1.551.379,3.877,3.877,0,0,1,1.236,1.48l8.018,14.7a.511.511,0,0,1,.06.4c-.04.106-.158.159-.351.159H19.927L12.311,3.8a1,1,0,0,0-1.736,0L2.959,17.121Zm25.077,0H25.42a.486.486,0,0,1-.557-.538V.538A.486.486,0,0,1,25.42,0h2.616a.475.475,0,0,1,.533.538V16.583A.475.475,0,0,1,28.036,17.121Z" transform="translate(0 1.268)"/><path class="b" d="M7.055-16.626v-.712h-4.4v7.344h4.4v-.712h-3.6v-2.715H6.144v-.712H3.453v-2.492Zm7.617-.712H13.56L12.27-12.42l-1.279-4.918h-1.1v7.344h.745v-6.186l1.323,5.074h.612l1.323-5.074v6.186h.778Zm5.638,0H17.752v7.344h.8v-3.249H20.31c1.434,0,2.213-.712,2.213-2.047S21.744-17.338,20.31-17.338Zm-.067,3.383h-1.69v-2.67h1.69c.979,0,1.457.445,1.457,1.335S21.222-13.956,20.243-13.956Zm7.339,4.095c1.69,0,2.569-1.291,2.569-3.805s-.878-3.805-2.569-3.805-2.569,1.291-2.569,3.805S25.892-9.861,27.582-9.861Zm0-.734c-1.156,0-1.746-1.046-1.746-3.071s.589-3.071,1.746-3.071,1.746,1.046,1.746,3.071S28.738-10.6,27.582-10.6Zm9.552-6.743-.6,6.02-.967-4.907h-.623l-.967,4.907-.6-6.02h-.789l.789,7.344h.967l.9-4.573.9,4.573h.945l.789-7.344Zm8.173.712v-.712H40.9v7.344h4.4v-.712H41.7v-2.715h2.691v-.712H41.7v-2.492ZM53.2-9.995l-1.857-3.349A1.793,1.793,0,0,0,53-15.325c0-1.313-.756-2.014-2.168-2.014H48.309v7.344h.8v-3.316h1.323L52.29-9.995Zm-4.092-6.632h1.646c.945,0,1.423.423,1.423,1.3s-.478,1.3-1.423,1.3H49.109Zm26.976-.712h-.856l-1.724,3.394-1.724-3.394h-.9l2.2,4.239v3.1h.8v-3.1Zm5.048,7.477c1.69,0,2.569-1.291,2.569-3.805s-.878-3.805-2.569-3.805-2.569,1.291-2.569,3.805S79.444-9.861,81.134-9.861Zm0-.734c-1.156,0-1.746-1.046-1.746-3.071s.589-3.071,1.746-3.071,1.746,1.046,1.746,3.071S82.29-10.6,81.134-10.6Zm7.65.734a2.031,2.031,0,0,0,2.268-2.248v-5.23h-.778v5.129c0,1.079-.489,1.613-1.479,1.613s-1.479-.534-1.479-1.613v-5.129h-.8v5.23A2.031,2.031,0,0,0,88.784-9.861ZM99.1-9.995l-1.857-3.349A1.793,1.793,0,0,0,98.9-15.325c0-1.313-.756-2.014-2.168-2.014H94.21v7.344h.8v-3.316h1.323l1.857,3.316Zm-4.092-6.632h1.646c.945,0,1.423.423,1.423,1.3s-.478,1.3-1.423,1.3H95.011ZM118.3-10.707v-6.632h-.8v7.344h4.292v-.712Zm11.164-5.919v-.712h-4.4v7.344h4.4v-.712h-3.6v-2.715h2.691v-.712h-2.691v-2.492Zm7.05,6.632h.834L135.1-17.338h-.823l-2.246,7.344h.789l.589-1.958h2.513Zm-2.891-2.67,1.045-3.572,1.045,3.572ZM145-9.995l-1.857-3.349a1.793,1.793,0,0,0,1.657-1.981c0-1.313-.756-2.014-2.168-2.014h-2.524v7.344h.8v-3.316h1.323l1.857,3.316Zm-4.092-6.632h1.646c.945,0,1.423.423,1.423,1.3s-.478,1.3-1.423,1.3h-1.646Zm10.619-.712v5.73l-2.735-5.73h-1.112v7.344h.756v-6.3l3,6.3h.845v-7.344Zm8.406.712v-.712h-4.6v.712h1.9v5.919h-1.9v.712h4.6v-.712h-1.9v-5.919Zm6.894-.712v5.73l-2.735-5.73h-1.112v7.344h.756v-6.3l3,6.3h.845v-7.344Zm8.506,3.483H173v.712h1.534v.467c0,1.324-.567,2.081-1.568,2.081-1.145,0-1.712-1.035-1.712-3.071s.589-3.071,1.746-3.071a1.523,1.523,0,0,1,1.49,1.146l.712-.245a2.156,2.156,0,0,0-2.2-1.636c-1.69,0-2.569,1.291-2.569,3.805,0,2.459.845,3.805,2.38,3.805a1.841,1.841,0,0,0,1.824-1.224v1.09h.7Z" transform="translate(-2.652 43.21)"/></g></g></svg>