<svg xmlns="http://www.w3.org/2000/svg" width="43.614" height="48.236" viewBox="0 0 43.614 48.236"><defs><style>.a,.b{fill:none;}.a{stroke:#ebebeb;stroke-linecap:round;stroke-linejoin:round;stroke-width:1.5px;}.b{opacity:0;}</style></defs><g transform="translate(0 0)"><path class="a" d="M13.629,40.2c7.505,0,13.629-6.773,13.629-15.074V15.074C27.259,6.773,21.135,0,13.629,0S0,6.773,0,15.074V25.123C0,33.423,6.124,40.2,13.629,40.2Z" transform="translate(8.178 4.02)"/><path class="a" d="M2.726,10.049A2.877,2.877,0,0,1,0,7.034V3.015A2.877,2.877,0,0,1,2.726,0,2.889,2.889,0,0,1,5.452,3.015v4.02A2.889,2.889,0,0,1,2.726,10.049Z" transform="translate(19.081 12.059)"/><path class="a" d="M0,8.039V0" transform="translate(21.807 4.02)"/><path class="b" d="M0,0H43.614V48.236H0Z"/></g></svg>